<?xml version="1.0" encoding="utf-8"?>
<!-- Generator: Adobe Illustrator 25.4.1, SVG Export Plug-In . SVG Version: 6.00 Build 0)  -->
<svg version="1.1" id="Layer_1" xmlns="http://www.w3.org/2000/svg" xmlns:xlink="http://www.w3.org/1999/xlink" x="0px" y="0px"
	 viewBox="0 0 99.3 97" style="enable-background:new 0 0 99.3 97;" xml:space="preserve">
<style type="text/css">
	.st0{fill:url(#SVGID_1_);}
	.st1{fill:url(#SVGID_00000082361274974031978480000012541912216756780183_);}
	.st2{fill:url(#SVGID_00000083063781553349643780000011588550001728207499_);}
	.st3{fill:url(#SVGID_00000134934167913195375370000012778294870916298927_);}
</style>
<g id="_x32_e7627db-82a5-4013-97e2-57f6757fe5f2" transform="matrix(1.0041393953668634,0,0,1.0041393953668634,160.97855823737012,-5.023155777113779)">
	
		<linearGradient id="SVGID_1_" gradientUnits="userSpaceOnUse" x1="-1055.6569" y1="592.4886" x2="-1054.6569" y2="592.4886" gradientTransform="matrix(68.4609 26.6015 31.9238 -57.0471 53194.8828 61929.9062)">
		<stop  offset="0" style="stop-color:#0D2545"/>
		<stop  offset="1" style="stop-color:#A21F44"/>
	</linearGradient>
	<path class="st0" d="M-90.8,63.2c0,5.5-2.3,10.9-6.6,15.2c-5.4,5.4-13.4,8.5-21.9,8.5c-6.9,0-16.7-2.9-25.1-10.1
		c-1.1-1-2.6-1.5-4.1-1.5c-3.5,0-6.3,2.8-6.3,6.3c0,1.7,0.7,3.2,1.8,4.4c0.9,0.9,1.9,1.7,3,2.5c11.6,9,24.8,9.7,28.5,9.7
		c12.8,0,23.6-4,31.1-11.5c8-8,10.8-18.1,10.8-24.9c0-7.9-2.9-15.3-7.8-20.3c-3.8-3.8-8.7-5.9-13.6-5.9c-5.2,0-10.1,2-13.6,5.5
		c-1,1-1.8,2.1-2.6,3.2c1.9-1.2,4.2-1.8,6.7-1.8C-99.6,42.3-90.8,51.7-90.8,63.2z"/>
	
		<linearGradient id="SVGID_00000024716897825902248300000003312267177779371963_" gradientUnits="userSpaceOnUse" x1="-1054.4103" y1="594.5323" x2="-1053.4103" y2="594.5323" gradientTransform="matrix(57.0471 31.9222 26.6015 -68.4574 44201.9219 74393.8984)">
		<stop  offset="0" style="stop-color:#0D2545"/>
		<stop  offset="1" style="stop-color:#A21F44"/>
	</linearGradient>
	<path style="fill:url(#SVGID_00000024716897825902248300000003312267177779371963_);" d="M-100.9,33.3c5.5,0,10.9,2.3,15.2,6.6
		c5.4,5.4,8.5,13.4,8.5,21.9c0,6.9-2.9,16.7-10.1,25.1c-2.3,2.6-2,6.6,0.6,8.8c1.1,1,2.6,1.5,4.1,1.5c1.7,0,3.3-0.7,4.4-1.8
		c0.9-0.9,1.7-1.9,2.5-3c9-11.6,9.7-24.8,9.7-28.5c0-12.8-4-23.6-11.5-31.1c-8-8-18.1-10.8-24.9-10.8c-7.9,0-15.3,2.9-20.3,7.8
		c-3.8,3.8-5.9,8.7-5.9,13.6c0,5.2,2,10.1,5.5,13.6c1,1,2.1,1.8,3.2,2.6c-1.2-1.9-1.8-4.2-1.8-6.7C-121.8,42-112.4,33.3-100.9,33.3z
		"/>
	
		<linearGradient id="SVGID_00000078740352568311786220000016631659223261918854_" gradientUnits="userSpaceOnUse" x1="-1055.6564" y1="592.452" x2="-1054.6564" y2="592.452" gradientTransform="matrix(68.4574 26.6011 31.9222 -57.0462 53204.6328 61901.9648)">
		<stop  offset="0" style="stop-color:#0D2545"/>
		<stop  offset="1" style="stop-color:#A21F44"/>
	</linearGradient>
	<path style="fill:url(#SVGID_00000078740352568311786220000016631659223261918854_);" d="M-130.9,43.4c0-5.5,2.3-10.9,6.6-15.2
		c5.4-5.4,13.4-8.5,21.9-8.5c6.9,0,16.7,2.9,25.1,10.1c2.6,2.3,6.6,2,8.8-0.6c1-1.1,1.5-2.6,1.5-4.1c0-1.7-0.7-3.3-1.8-4.4
		c-0.9-0.9-1.9-1.7-3-2.5c-11.6-9-24.8-9.7-28.5-9.7c-12.8,0-23.6,4-31.1,11.5c-8,8-10.8,18.1-10.8,24.9c0,7.9,2.9,15.3,7.8,20.3
		c3.8,3.8,8.7,5.9,13.6,5.9c5.2,0,10.1-2,13.6-5.5c1-1,1.8-2.1,2.6-3.2c-1.9,1.2-4.2,1.8-6.7,1.8C-122.1,64.3-130.9,54.9-130.9,43.4
		z"/>
	
		<linearGradient id="SVGID_00000070087733440244364370000000648357346458255236_" gradientUnits="userSpaceOnUse" x1="-1054.4104" y1="594.4218" x2="-1053.4104" y2="594.4218" gradientTransform="matrix(57.0471 31.923 26.6015 -68.4591 44174.9766 74383.2188)">
		<stop  offset="0" style="stop-color:#0D2545"/>
		<stop  offset="1" style="stop-color:#A21F44"/>
	</linearGradient>
	<path style="fill:url(#SVGID_00000070087733440244364370000000648357346458255236_);" d="M-120.8,73.3c-5.5,0-10.9-2.3-15.2-6.6
		c-5.4-5.4-8.5-13.4-8.5-21.9c0-6.9,2.9-16.7,10.1-25.1c1-1.1,1.5-2.6,1.5-4.1c0-3.5-2.8-6.3-6.3-6.3c-1.7,0-3.2,0.6-4.4,1.8
		c-0.9,0.9-1.7,2-2.5,3c-9,11.6-9.7,24.8-9.7,28.5c0,12.8,4,23.6,11.5,31.1c8,8,18.1,10.8,24.9,10.8c7.9,0,15.3-2.9,20.3-7.8
		c3.8-3.8,5.9-8.7,5.9-13.6c0-5.2-2-10.1-5.5-13.6c-1-1-2.1-1.8-3.2-2.6c1.2,1.9,1.8,4.2,1.8,6.7C-99.9,64.6-109.3,73.3-120.8,73.3
		L-120.8,73.3z"/>
</g>
</svg>
