<?xml version="1.0" encoding="utf-8"?>
<!-- Generator: Adobe Illustrator 25.4.1, SVG Export Plug-In . SVG Version: 6.00 Build 0)  -->
<svg version="1.1" id="Layer_1" xmlns="http://www.w3.org/2000/svg" xmlns:xlink="http://www.w3.org/1999/xlink" x="0px" y="0px"
	 viewBox="0 0 96.2 95.6" style="enable-background:new 0 0 96.2 95.6;" xml:space="preserve">
<style type="text/css">
	.st0{fill:url(#SVGID_1_);}
	.st1{fill:url(#SVGID_00000071539615774368932590000016234588388799286184_);}
	.st2{fill:url(#SVGID_00000046300123564522986670000000939067535021612163_);}
	.st3{fill:url(#SVGID_00000094595811306252273290000010979676574892657572_);}
</style>
<g id="_x39_6919003-8b5f-4b4d-9141-0c1d91e1d6e3" transform="matrix(1.0041393953668634,0,0,1.0041393953668634,-5.021441762629877,-5.023155777113779)">
	
		<linearGradient id="SVGID_1_" gradientUnits="userSpaceOnUse" x1="-674.9457" y1="587.3802" x2="-673.9457" y2="587.3802" gradientTransform="matrix(68.4609 26.6015 31.9238 -57.0471 27457.9043 51510.2812)">
		<stop  offset="0" style="stop-color:#A54665"/>
		<stop  offset="1" style="stop-color:#ADBDE0"/>
	</linearGradient>
	<path class="st0" d="M73,62.5c0,5.5-2.3,10.9-6.6,15.2C61,83.1,53,86.2,44.5,86.2c-6.9,0-16.7-2.9-25.1-10.1
		c-1.1-1-2.6-1.5-4.1-1.5c-3.5,0-6.3,2.8-6.3,6.3c0,1.7,0.7,3.2,1.8,4.4c0.9,0.9,1.9,1.7,3,2.5c11.6,9,24.8,9.7,28.5,9.7
		c12.8,0,23.6-4,31.1-11.5c8-8,10.8-18.1,10.8-24.9c0-7.9-2.9-15.3-7.8-20.3c-3.8-3.8-8.7-5.9-13.6-5.9c-5.2,0-10.1,2-13.6,5.5
		c-1,1-1.8,2.1-2.6,3.2c1.9-1.2,4.2-1.8,6.7-1.8C64.2,41.6,73,51,73,62.5z"/>
	
		<linearGradient id="SVGID_00000005242455570456523340000001829449065195577479_" gradientUnits="userSpaceOnUse" x1="-673.8291" y1="589.3751" x2="-672.8291" y2="589.3751" gradientTransform="matrix(57.0471 31.9222 26.6015 -68.4574 22791.832 61891.1328)">
		<stop  offset="0" style="stop-color:#A54665"/>
		<stop  offset="1" style="stop-color:#ADBDE0"/>
	</linearGradient>
	<path style="fill:url(#SVGID_00000005242455570456523340000001829449065195577479_);" d="M62.8,32.5c5.5,0,10.9,2.3,15.2,6.6
		c5.4,5.4,8.5,13.4,8.5,21.9c0,6.9-2.9,16.7-10.1,25.1c-2.3,2.6-2,6.6,0.6,8.8c1.1,1,2.6,1.5,4.1,1.5c1.7,0,3.3-0.7,4.4-1.8
		c0.9-0.9,1.7-1.9,2.5-3c9-11.6,9.7-24.8,9.7-28.5c0-12.8-4-23.6-11.5-31.1c-8-8-18.1-10.8-24.9-10.8c-7.9,0-15.3,2.9-20.3,7.8
		c-3.8,3.8-5.9,8.7-5.9,13.6c0,5.2,2,10.1,5.5,13.6c1,1,2.1,1.8,3.2,2.6C42.6,57,42,54.7,42,52.1C42,41.3,51.3,32.5,62.8,32.5z"/>
	
		<linearGradient id="SVGID_00000094607391527042625340000011217310560913441693_" gradientUnits="userSpaceOnUse" x1="-674.9453" y1="587.3435" x2="-673.9453" y2="587.3435" gradientTransform="matrix(68.4574 26.6011 31.9222 -57.0462 27468.9785 51482.5078)">
		<stop  offset="0" style="stop-color:#A54665"/>
		<stop  offset="1" style="stop-color:#ADBDE0"/>
	</linearGradient>
	<path style="fill:url(#SVGID_00000094607391527042625340000011217310560913441693_);" d="M32.9,42.7c0-5.6,2.3-10.9,6.6-15.2
		c5.4-5.4,13.4-8.5,21.9-8.5c6.9,0,16.7,2.9,25.1,10.1c2.6,2.3,6.6,2,8.8-0.6c1-1.1,1.5-2.6,1.5-4.1c0-1.7-0.7-3.3-1.8-4.4
		c-0.9-0.9-1.9-1.7-3-2.5c-11.6-9-24.8-9.7-28.5-9.7c-12.8,0-23.6,4-31.1,11.5c-8,8-10.8,18.1-10.8,24.9c0,7.9,2.9,15.3,7.8,20.3
		c3.8,3.8,8.7,5.9,13.6,5.9c5.2,0,10.1-2,13.6-5.5c1-1,1.8-2.1,2.6-3.2c-1.9,1.2-4.2,1.8-6.7,1.8C41.6,63.5,32.9,54.2,32.9,42.7z"/>
	
		<linearGradient id="SVGID_00000147907391025836955430000004305466443354040995_" gradientUnits="userSpaceOnUse" x1="-673.8292" y1="589.2646" x2="-672.8292" y2="589.2646" gradientTransform="matrix(57.0471 31.923 26.6015 -68.4591 22764.8887 61880.1484)">
		<stop  offset="0" style="stop-color:#A54665"/>
		<stop  offset="1" style="stop-color:#ADBDE0"/>
	</linearGradient>
	<path style="fill:url(#SVGID_00000147907391025836955430000004305466443354040995_);" d="M43,72.6c-5.5,0-10.9-2.3-15.2-6.6
		c-5.4-5.4-8.5-13.4-8.5-21.9c0-6.9,2.9-16.7,10.1-25.1c1-1.1,1.5-2.6,1.5-4.1c0-3.5-2.8-6.3-6.3-6.3c-1.7,0-3.2,0.6-4.4,1.8
		c-0.9,0.9-1.7,2-2.5,3c-9,11.6-9.7,24.8-9.7,28.5c0,12.8,4,23.6,11.5,31.1c8,8,18.1,10.8,24.9,10.8c7.9,0,15.3-2.9,20.3-7.8
		c3.8-3.8,5.9-8.7,5.9-13.6c0-5.2-2-10.1-5.5-13.6c-1-1-2.1-1.8-3.2-2.6c1.2,1.9,1.8,4.2,1.8,6.7C63.9,63.9,54.5,72.6,43,72.6
		L43,72.6z"/>
</g>
</svg>
