<?xml version="1.0" encoding="utf-8"?>
<!-- Generator: Adobe Illustrator 25.4.1, SVG Export Plug-In . SVG Version: 6.00 Build 0)  -->
<svg version="1.1" id="Layer_1" xmlns="http://www.w3.org/2000/svg" xmlns:xlink="http://www.w3.org/1999/xlink" x="0px" y="0px"
	 viewBox="0 0 96.7 94.9" style="enable-background:new 0 0 96.7 94.9;" xml:space="preserve">
<g id="_x39_f432f3e-7fb3-43b9-90c7-e15ce1a0167c" transform="matrix(1.0041393953668634,0,0,1.0041393953668634,160.97855823737012,-5.023155777113779)">
	<path d="M-92.1,62.2c0,5.5-2.3,10.9-6.6,15.2c-5.4,5.4-13.4,8.5-21.9,8.5c-6.9,0-16.7-2.9-25.1-10.1c-1.1-1-2.6-1.5-4.1-1.5
		c-3.5,0-6.3,2.8-6.3,6.3c0,1.7,0.7,3.2,1.8,4.4c0.9,0.9,1.9,1.7,3,2.5c11.6,9,24.8,9.7,28.5,9.7c12.8,0,23.6-4,31.1-11.5
		c8-8,10.8-18.1,10.8-24.9c0-7.9-2.9-15.3-7.8-20.3c-3.8-3.8-8.7-5.9-13.6-5.9c-5.2,0-10.1,2-13.6,5.5c-1,1-1.8,2.1-2.6,3.2
		c1.9-1.2,4.2-1.8,6.7-1.8C-100.9,41.3-92.1,50.7-92.1,62.2z"/>
	<path d="M-102.3,32.2c5.5,0,10.9,2.3,15.2,6.6c5.4,5.4,8.5,13.4,8.5,21.9c0,6.9-2.9,16.7-10.1,25.1c-2.3,2.6-2,6.6,0.6,8.8
		c1.1,1,2.6,1.5,4.1,1.5c1.7,0,3.3-0.7,4.4-1.8c0.9-0.9,1.7-1.9,2.5-3c9-11.6,9.7-24.8,9.7-28.5c0-12.8-4-23.6-11.5-31.1
		c-8-8-18.1-10.8-24.9-10.8c-7.9,0-15.3,2.9-20.3,7.8c-3.8,3.8-5.9,8.7-5.9,13.6c0,5.2,2,10.1,5.5,13.6c1,1,2.1,1.8,3.2,2.6
		c-1.2-1.9-1.8-4.2-1.8-6.7C-123.1,41-113.8,32.2-102.3,32.2z"/>
	<path d="M-132.2,42.3c0-5.5,2.3-10.9,6.6-15.2c5.4-5.4,13.4-8.5,21.9-8.5c6.9,0,16.7,2.9,25.1,10.1c2.6,2.3,6.6,2,8.8-0.6
		c1-1.1,1.5-2.6,1.5-4.1c0-1.7-0.7-3.3-1.8-4.4c-0.9-0.9-1.9-1.7-3-2.5c-11.6-9-24.8-9.7-28.5-9.7c-12.8,0-23.6,4-31.1,11.5
		c-8,8-10.8,18.1-10.8,24.9c0,7.9,2.9,15.3,7.8,20.3c3.8,3.8,8.7,5.9,13.6,5.9c5.2,0,10.1-2,13.6-5.5c1-1,1.8-2.1,2.6-3.2
		c-1.9,1.2-4.2,1.8-6.7,1.8C-123.5,63.2-132.2,53.8-132.2,42.3z"/>
	<path d="M-122.1,72.3c-5.5,0-10.9-2.3-15.2-6.6c-5.4-5.4-8.5-13.4-8.5-21.9c0-6.9,2.9-16.7,10.1-25.1c1-1.1,1.5-2.6,1.5-4.1
		c0-3.5-2.8-6.3-6.3-6.3c-1.7,0-3.2,0.6-4.4,1.8c-0.9,0.9-1.7,2-2.5,3c-9,11.6-9.7,24.8-9.7,28.5c0,12.8,4,23.6,11.5,31.1
		c8,8,18.1,10.8,24.9,10.8c7.9,0,15.3-2.9,20.3-7.8c3.8-3.8,5.9-8.7,5.9-13.6c0-5.2-2-10.1-5.5-13.6c-1-1-2.1-1.8-3.2-2.6
		c1.2,1.9,1.8,4.2,1.8,6.7C-101.2,63.5-110.6,72.3-122.1,72.3L-122.1,72.3z"/>
</g>
</svg>
